<svg preserveAspectRatio="none" overflow="visible" style="display: block;" width="15" height="15" viewBox="0 0 15 15" fill="none" xmlns="http://www.w3.org/2000/svg">
<g id="activity" clip-path="url(#clip0_0_37)">
<path id="Vector" d="M13.7505 7.5H12.2004C11.9272 7.49942 11.6614 7.58832 11.4435 7.75312C11.2257 7.91793 11.0678 8.14955 10.994 8.41257L9.52516 13.638C9.5157 13.6704 9.49596 13.699 9.46891 13.7192C9.44186 13.7395 9.40896 13.7505 9.37515 13.7505C9.34134 13.7505 9.30844 13.7395 9.28139 13.7192C9.25434 13.699 9.23461 13.6704 9.22514 13.638L5.77486 1.36201C5.76539 1.32955 5.74566 1.30104 5.71861 1.28075C5.69156 1.26047 5.65866 1.2495 5.62485 1.2495C5.59104 1.2495 5.55814 1.26047 5.53109 1.28075C5.50404 1.30104 5.48431 1.32955 5.47484 1.36201L4.00597 6.58743C3.93251 6.84942 3.77557 7.08029 3.55897 7.24499C3.34238 7.40969 3.07797 7.49922 2.80587 7.5H1.2495" stroke="#6E7C8D" stroke-width="1.5" stroke-linecap="round"/>
</g>
<defs>
<clipPath id="clip0_0_37">
<rect width="15" height="15" fill="white"/>
</clipPath>
</defs>
</svg>
