<svg preserveAspectRatio="none" overflow="visible" style="display: block;" width="15" height="15" viewBox="0 0 15 15" fill="none" xmlns="http://www.w3.org/2000/svg">
<g id="box">
<path id="Vector" d="M2.06238 4.37496L7.49988 7.50014M7.49988 7.50014L12.9374 4.37496M7.49988 7.50014L7.5 13.7505M13.125 4.99993C13.1248 4.78072 13.0669 4.56542 12.9572 4.37563C12.8475 4.18583 12.6898 4.02823 12.5 3.91862L8.125 1.41848C7.93498 1.30876 7.71942 1.251 7.5 1.251C7.28058 1.251 7.06502 1.30876 6.875 1.41848L2.5 3.91862C2.31016 4.02823 2.15249 4.18583 2.04279 4.37563C1.93309 4.56542 1.87522 4.78072 1.875 4.99993V10.0002C1.87522 10.2194 1.93309 10.4347 2.04279 10.6245C2.15249 10.8143 2.31016 10.9719 2.5 11.0815L6.875 13.5817C7.06502 13.6914 7.28058 13.7492 7.5 13.7492C7.71942 13.7492 7.93498 13.6914 8.125 13.5817L12.5 11.0815C12.6898 10.9719 12.8475 10.8143 12.9572 10.6245C13.0669 10.4347 13.1248 10.2194 13.125 10.0002V4.99993Z" stroke="#6E7C8D" stroke-width="1.5" stroke-linecap="round"/>
</g>
</svg>
